<?xml version="1.0" encoding="UTF-8" standalone="no"?>
<!DOCTYPE svg PUBLIC "-//W3C//DTD SVG 1.1//EN" "http://www.w3.org/Graphics/SVG/1.1/DTD/svg11.dtd">
<!-- Generiert durch Microsoft Visio, SVG Export Schemantischer Ablauf Webcrawler.svg Page-1 -->
<svg xmlns="http://www.w3.org/2000/svg" xmlns:xlink="http://www.w3.org/1999/xlink" xmlns:ev="http://www.w3.org/2001/xml-events"
		xmlns:v="http://schemas.microsoft.com/visio/2003/SVGExtensions/" width="11.6929in" height="8.26772in"
		viewBox="0 0 841.89 595.276" xml:space="preserve" color-interpolation-filters="sRGB" class="st15">
	<v:documentProperties v:langID="1031" v:metric="true" v:viewMarkup="false">
		<v:userDefs>
			<v:ud v:nameU="msvNoAutoConnect" v:val="VT0(0):26"/>
		</v:userDefs>
	</v:documentProperties>

	<style type="text/css">
	<![CDATA[
		.st1 {visibility:visible}
		.st2 {fill:#5b9bd5;fill-opacity:0.25;filter:url(#filter_2);stroke:#5b9bd5;stroke-opacity:0.25}
		.st3 {fill:#4f87bb;stroke:#41719c;stroke-width:0.75}
		.st4 {fill:#feffff;font-family:Calibri;font-size:0.666664em}
		.st5 {marker-end:url(#mrkr4-12);stroke:#5b9bd5;stroke-linecap:round;stroke-linejoin:round;stroke-width:1}
		.st6 {fill:#5b9bd5;fill-opacity:1;stroke:#5b9bd5;stroke-opacity:1;stroke-width:0.28409090909091}
		.st7 {fill:#5b9bd5;fill-opacity:0.22;filter:url(#filter_2);stroke:#5b9bd5;stroke-opacity:0.22}
		.st8 {fill:#5b9bd5;stroke:#c8c8c8;stroke-width:0.25}
		.st9 {font-size:1em}
		.st10 {fill:#ffffff;stroke:none;stroke-linecap:butt;stroke-width:7.2}
		.st11 {fill:#4f87bb;font-family:Calibri;font-size:0.666664em}
		.st12 {stroke:#4a80b1;stroke-linecap:round;stroke-linejoin:round;stroke-width:1}
		.st13 {fill:#4a80b0;font-family:Calibri;font-size:0.666664em}
		.st14 {fill:#4a80b1;stroke:none;stroke-linecap:butt;stroke-width:0.75}
		.st15 {fill:none;fill-rule:evenodd;font-size:12px;overflow:visible;stroke-linecap:square;stroke-miterlimit:3}
	]]>
	</style>

	<defs id="Markers">
		<g id="lend4">
			<path d="M 2 1 L 0 0 L 2 -1 L 2 1 " style="stroke:none"/>
		</g>
		<marker id="mrkr4-12" class="st6" v:arrowType="4" v:arrowSize="2" v:setback="7.04" refX="-7.04" orient="auto"
				markerUnits="strokeWidth" overflow="visible">
			<use xlink:href="#lend4" transform="scale(-3.52,-3.52) "/>
		</marker>
	</defs>
	<defs id="Filters">
		<filter id="filter_2">
			<feGaussianBlur stdDeviation="2"/>
		</filter>
	</defs>
	<g v:mID="0" v:index="1" v:groupContext="foregroundPage">
		<v:userDefs>
			<v:ud v:nameU="msvThemeOrder" v:val="VT0(0):26"/>
		</v:userDefs>
		<title>Zeichenblatt-1</title>
		<v:pageProperties v:drawingScale="0.0393701" v:pageScale="0.0393701" v:drawingUnits="24" v:shadowOffsetX="8.50394"
				v:shadowOffsetY="-8.50394"/>
		<v:layer v:name="Flussdiagramm" v:index="0"/>
		<v:layer v:name="Verbinder" v:index="1"/>
		<g id="shape1-1" v:mID="1" v:groupContext="shape" v:layerMember="0" transform="translate(283.465,-496.063)">
			<title>Start/Ende</title>
			<desc>Startlinks</desc>
			<v:custProps>
				<v:cp v:nameU="Cost" v:lbl="Kosten" v:prompt="" v:type="7" v:format="@" v:sortKey="" v:invis="false" v:ask="false"
						v:langID="1031" v:cal="0"/>
				<v:cp v:nameU="ProcessNumber" v:lbl="Prozessnummer" v:prompt="" v:type="2" v:format="" v:sortKey="" v:invis="false"
						v:ask="false" v:langID="1031" v:cal="0"/>
				<v:cp v:nameU="Owner" v:lbl="Besitzer" v:prompt="" v:type="0" v:format="" v:sortKey="" v:invis="false"
						v:ask="false" v:langID="1031" v:cal="0"/>
				<v:cp v:nameU="Function" v:lbl="Funktionsname" v:prompt="" v:type="0" v:format="" v:sortKey="" v:invis="false"
						v:ask="false" v:langID="1031" v:cal="0" v:val="VT4()"/>
				<v:cp v:nameU="StartDate" v:lbl="Startdatum" v:prompt="" v:type="5" v:format="" v:sortKey="" v:invis="false"
						v:ask="false" v:langID="1031" v:cal="0"/>
				<v:cp v:nameU="EndDate" v:lbl="Enddatum" v:prompt="" v:type="5" v:format="" v:sortKey="" v:invis="false"
						v:ask="false" v:langID="1031" v:cal="0"/>
				<v:cp v:nameU="Status" v:lbl="Status" v:prompt="" v:type="4"
						v:format=";Nicht begonnen;In Bearbeitung;Abgeschlossen;Zurückgestellt;Auf Eingabe wartend" v:sortKey=""
						v:invis="false" v:ask="false" v:langID="1031" v:cal="0" v:val="VT4()"/>
			</v:custProps>
			<v:userDefs>
				<v:ud v:nameU="visVersion" v:prompt="" v:val="VT0(15):26"/>
				<v:ud v:nameU="DefaultWidth" v:prompt="" v:val="VT0(0.98425196850394):24"/>
				<v:ud v:nameU="DefaultHeight" v:prompt="" v:val="VT0(0.39370078740157):24"/>
				<v:ud v:nameU="ResizeTxtHeight" v:prompt="" v:val="VT0(0.39370078740157):24"/>
			</v:userDefs>
			<v:textBlock v:margins="rect(2,2,2,2)" v:tabSpace="42.5197"/>
			<v:textRect cx="35.4331" cy="581.102" width="70.87" height="28.3465"/>
			<g id="shadow1-2" v:groupContext="shadow" v:shadowOffsetX="0.345598" v:shadowOffsetY="-1.97279" v:shadowType="1"
					transform="matrix(1,0,0,1,0.345598,1.97279)" class="st1">
				<path d="M14.17 595.28 L56.69 595.28 A14.1732 14.1732 -180 0 0 56.69 566.93 L14.17 566.93 A14.1732 14.1732 -180 1
							 0 14.17 595.28 Z" class="st2"/>
			</g>
			<path d="M14.17 595.28 L56.69 595.28 A14.1732 14.1732 -180 0 0 56.69 566.93 L14.17 566.93 A14.1732 14.1732 -180 1 0 14.17
						 595.28 Z" class="st3"/>
			<text x="20.28" y="583.5" class="st4" v:langID="1031"><v:paragraph v:horizAlign="1"/><v:tabList/>Startlinks</text>		</g>
		<g id="shape3-7" v:mID="3" v:groupContext="shape" v:layerMember="1" transform="translate(311.811,-496.063)">
			<title>Dynamischer Verbinder</title>
			<path d="M7.09 595.28 L7.09 630.76" class="st5"/>
		</g>
		<g id="shape2-13" v:mID="2" v:groupContext="shape" v:layerMember="0" transform="translate(283.465,-411.024)">
			<title>Prozess</title>
			<desc>Hinzufügen zur Liste</desc>
			<v:custProps>
				<v:cp v:nameU="Cost" v:lbl="Kosten" v:prompt="" v:type="7" v:format="@" v:sortKey="" v:invis="false" v:ask="false"
						v:langID="1031" v:cal="0"/>
				<v:cp v:nameU="ProcessNumber" v:lbl="Prozessnummer" v:prompt="" v:type="2" v:format="" v:sortKey="" v:invis="false"
						v:ask="false" v:langID="1031" v:cal="0"/>
				<v:cp v:nameU="Owner" v:lbl="Besitzer" v:prompt="" v:type="0" v:format="" v:sortKey="" v:invis="false"
						v:ask="false" v:langID="1031" v:cal="0"/>
				<v:cp v:nameU="Function" v:lbl="Funktionsname" v:prompt="" v:type="0" v:format="" v:sortKey="" v:invis="false"
						v:ask="false" v:langID="1031" v:cal="0" v:val="VT4()"/>
				<v:cp v:nameU="StartDate" v:lbl="Startdatum" v:prompt="" v:type="5" v:format="" v:sortKey="" v:invis="false"
						v:ask="false" v:langID="1031" v:cal="0"/>
				<v:cp v:nameU="EndDate" v:lbl="Enddatum" v:prompt="" v:type="5" v:format="" v:sortKey="" v:invis="false"
						v:ask="false" v:langID="1031" v:cal="0"/>
				<v:cp v:nameU="Status" v:lbl="Status" v:prompt="" v:type="4"
						v:format=";Nicht begonnen;In Bearbeitung;Abgeschlossen;Zurückgestellt;Auf Eingabe wartend" v:sortKey=""
						v:invis="false" v:ask="false" v:langID="1031" v:cal="0" v:val="VT4()"/>
			</v:custProps>
			<v:userDefs>
				<v:ud v:nameU="visVersion" v:prompt="" v:val="VT0(15):26"/>
				<v:ud v:nameU="DefaultWidth" v:prompt="" v:val="VT0(0.98425196850394):24"/>
				<v:ud v:nameU="DefaultHeight" v:prompt="" v:val="VT0(0.59055118110236):24"/>
				<v:ud v:nameU="ResizeTxtHeight" v:prompt="" v:val="VT0(0.59055118110236):24"/>
			</v:userDefs>
			<v:textBlock v:margins="rect(2,2,2,2)" v:tabSpace="42.5197"/>
			<v:textRect cx="35.4331" cy="574.016" width="70.87" height="42.5197"/>
			<g id="shadow2-14" v:groupContext="shadow" v:shadowOffsetX="0.345598" v:shadowOffsetY="-1.97279" v:shadowType="1"
					transform="matrix(1,0,0,1,0.345598,1.97279)" class="st1">
				<rect x="0" y="552.756" width="70.8661" height="42.5197" class="st7"/>
			</g>
			<rect x="0" y="552.756" width="70.8661" height="42.5197" class="st8"/>
			<text x="2.56" y="576.42" class="st4" v:langID="1031"><v:paragraph v:horizAlign="1"/><v:tabList/>Hinzufügen zur Liste</text>		</g>
		<g id="shape4-19" v:mID="4" v:groupContext="shape" v:layerMember="0" transform="translate(425.197,-411.024)">
			<title>Daten</title>
			<desc>Liste aller zu besuchenden Webseiten</desc>
			<v:custProps>
				<v:cp v:nameU="Cost" v:lbl="Kosten" v:prompt="" v:type="7" v:format="@" v:sortKey="" v:invis="false" v:ask="false"
						v:langID="1031" v:cal="0"/>
				<v:cp v:nameU="ProcessNumber" v:lbl="Prozessnummer" v:prompt="" v:type="2" v:format="" v:sortKey="" v:invis="false"
						v:ask="false" v:langID="1031" v:cal="0"/>
				<v:cp v:nameU="Owner" v:lbl="Besitzer" v:prompt="" v:type="0" v:format="" v:sortKey="" v:invis="false"
						v:ask="false" v:langID="1031" v:cal="0"/>
				<v:cp v:nameU="Function" v:lbl="Funktionsname" v:prompt="" v:type="0" v:format="" v:sortKey="" v:invis="false"
						v:ask="false" v:langID="1031" v:cal="0" v:val="VT4()"/>
				<v:cp v:nameU="StartDate" v:lbl="Startdatum" v:prompt="" v:type="5" v:format="" v:sortKey="" v:invis="false"
						v:ask="false" v:langID="1031" v:cal="0"/>
				<v:cp v:nameU="EndDate" v:lbl="Enddatum" v:prompt="" v:type="5" v:format="" v:sortKey="" v:invis="false"
						v:ask="false" v:langID="1031" v:cal="0"/>
				<v:cp v:nameU="Status" v:lbl="Status" v:prompt="" v:type="4"
						v:format=";Nicht begonnen;In Bearbeitung;Abgeschlossen;Zurückgestellt;Auf Eingabe wartend" v:sortKey=""
						v:invis="false" v:ask="false" v:langID="1031" v:cal="0" v:val="VT4()"/>
			</v:custProps>
			<v:userDefs>
				<v:ud v:nameU="visVersion" v:prompt="" v:val="VT0(15):26"/>
				<v:ud v:nameU="DefaultWidth" v:prompt="" v:val="VT0(0.98425196850394):24"/>
				<v:ud v:nameU="DefaultHeight" v:prompt="" v:val="VT0(0.59055118110236):24"/>
				<v:ud v:nameU="ResizeTxtHeight" v:prompt="" v:val="VT0(0.59055118110236):24"/>
			</v:userDefs>
			<v:textBlock v:margins="rect(2,2,2,2)" v:tabSpace="42.5197"/>
			<v:textRect cx="35.4331" cy="574.016" width="47.25" height="42.5197"/>
			<g id="shadow4-20" v:groupContext="shadow" v:shadowOffsetX="0.345598" v:shadowOffsetY="-1.97279" v:shadowType="1"
					transform="matrix(1,0,0,1,0.345598,1.97279)" class="st1">
				<path d="M-10.63 595.28 L60.24 595.28 L81.5 552.76 L10.63 552.76 L-10.63 595.28 Z" class="st7"/>
			</g>
			<path d="M-10.63 595.28 L60.24 595.28 L81.5 552.76 L10.63 552.76 L-10.63 595.28 Z" class="st8"/>
			<text x="15.31" y="566.82" class="st4" v:langID="1031"><v:paragraph v:horizAlign="1"/><v:tabList/>Liste aller zu <tspan
						x="15.7" dy="1.2em" class="st9">besuchende</tspan><tspan x="14.87" dy="1.2em" class="st9">n Webseiten</tspan></text>		</g>
		<g id="shape5-27" v:mID="5" v:groupContext="shape" v:layerMember="1" transform="translate(425.197,-425.197)">
			<title>Dynamischer Verbinder.5</title>
			<path d="M0 588.19 L-63.83 588.19" class="st5"/>
		</g>
		<g id="shape7-32" v:mID="7" v:groupContext="shape" v:layerMember="1" transform="translate(311.811,-411.024)">
			<title>Dynamischer Verbinder.7</title>
			<path d="M7.09 595.28 L7.09 630.76" class="st5"/>
		</g>
		<g id="shape6-37" v:mID="6" v:groupContext="shape" v:layerMember="0" transform="translate(283.465,-325.984)">
			<title>Prozess.6</title>
			<desc>Herunterladen der Webseiten</desc>
			<v:custProps>
				<v:cp v:nameU="Cost" v:lbl="Kosten" v:prompt="" v:type="7" v:format="@" v:sortKey="" v:invis="false" v:ask="false"
						v:langID="1031" v:cal="0"/>
				<v:cp v:nameU="ProcessNumber" v:lbl="Prozessnummer" v:prompt="" v:type="2" v:format="" v:sortKey="" v:invis="false"
						v:ask="false" v:langID="1031" v:cal="0"/>
				<v:cp v:nameU="Owner" v:lbl="Besitzer" v:prompt="" v:type="0" v:format="" v:sortKey="" v:invis="false"
						v:ask="false" v:langID="1031" v:cal="0"/>
				<v:cp v:nameU="Function" v:lbl="Funktionsname" v:prompt="" v:type="0" v:format="" v:sortKey="" v:invis="false"
						v:ask="false" v:langID="1031" v:cal="0" v:val="VT4()"/>
				<v:cp v:nameU="StartDate" v:lbl="Startdatum" v:prompt="" v:type="5" v:format="" v:sortKey="" v:invis="false"
						v:ask="false" v:langID="1031" v:cal="0"/>
				<v:cp v:nameU="EndDate" v:lbl="Enddatum" v:prompt="" v:type="5" v:format="" v:sortKey="" v:invis="false"
						v:ask="false" v:langID="1031" v:cal="0"/>
				<v:cp v:nameU="Status" v:lbl="Status" v:prompt="" v:type="4"
						v:format=";Nicht begonnen;In Bearbeitung;Abgeschlossen;Zurückgestellt;Auf Eingabe wartend" v:sortKey=""
						v:invis="false" v:ask="false" v:langID="1031" v:cal="0" v:val="VT4()"/>
			</v:custProps>
			<v:userDefs>
				<v:ud v:nameU="visVersion" v:prompt="" v:val="VT0(15):26"/>
				<v:ud v:nameU="DefaultWidth" v:prompt="" v:val="VT0(0.98425196850394):24"/>
				<v:ud v:nameU="DefaultHeight" v:prompt="" v:val="VT0(0.59055118110236):24"/>
				<v:ud v:nameU="ResizeTxtHeight" v:prompt="" v:val="VT0(0.59055118110236):24"/>
			</v:userDefs>
			<v:textBlock v:margins="rect(2,2,2,2)" v:tabSpace="42.5197"/>
			<v:textRect cx="35.4331" cy="574.016" width="70.87" height="42.5197"/>
			<g id="shadow6-38" v:groupContext="shadow" v:shadowOffsetX="0.345598" v:shadowOffsetY="-1.97279" v:shadowType="1"
					transform="matrix(1,0,0,1,0.345598,1.97279)" class="st1">
				<rect x="0" y="552.756" width="70.8661" height="42.5197" class="st7"/>
			</g>
			<rect x="0" y="552.756" width="70.8661" height="42.5197" class="st8"/>
			<text x="5.21" y="571.62" class="st4" v:langID="1031"><v:paragraph v:horizAlign="1"/><v:tabList/>Herunterladen der <tspan
						x="17.88" dy="1.2em" class="st9">Webseiten</tspan></text>		</g>
		<g id="shape11-44" v:mID="11" v:groupContext="shape" v:layerMember="1" transform="translate(311.811,-325.984)">
			<title>Dynamischer Verbinder.11</title>
			<path d="M7.09 595.28 L7.09 630.76" class="st5"/>
		</g>
		<g id="shape10-49" v:mID="10" v:groupContext="shape" v:layerMember="0" transform="translate(283.465,-240.945)">
			<title>Prozess.10</title>
			<desc>Analyse der Webseite</desc>
			<v:custProps>
				<v:cp v:nameU="Cost" v:lbl="Kosten" v:prompt="" v:type="7" v:format="@" v:sortKey="" v:invis="false" v:ask="false"
						v:langID="1031" v:cal="0"/>
				<v:cp v:nameU="ProcessNumber" v:lbl="Prozessnummer" v:prompt="" v:type="2" v:format="" v:sortKey="" v:invis="false"
						v:ask="false" v:langID="1031" v:cal="0"/>
				<v:cp v:nameU="Owner" v:lbl="Besitzer" v:prompt="" v:type="0" v:format="" v:sortKey="" v:invis="false"
						v:ask="false" v:langID="1031" v:cal="0"/>
				<v:cp v:nameU="Function" v:lbl="Funktionsname" v:prompt="" v:type="0" v:format="" v:sortKey="" v:invis="false"
						v:ask="false" v:langID="1031" v:cal="0" v:val="VT4()"/>
				<v:cp v:nameU="StartDate" v:lbl="Startdatum" v:prompt="" v:type="5" v:format="" v:sortKey="" v:invis="false"
						v:ask="false" v:langID="1031" v:cal="0"/>
				<v:cp v:nameU="EndDate" v:lbl="Enddatum" v:prompt="" v:type="5" v:format="" v:sortKey="" v:invis="false"
						v:ask="false" v:langID="1031" v:cal="0"/>
				<v:cp v:nameU="Status" v:lbl="Status" v:prompt="" v:type="4"
						v:format=";Nicht begonnen;In Bearbeitung;Abgeschlossen;Zurückgestellt;Auf Eingabe wartend" v:sortKey=""
						v:invis="false" v:ask="false" v:langID="1031" v:cal="0" v:val="VT4()"/>
			</v:custProps>
			<v:userDefs>
				<v:ud v:nameU="visVersion" v:prompt="" v:val="VT0(15):26"/>
				<v:ud v:nameU="DefaultWidth" v:prompt="" v:val="VT0(0.98425196850394):24"/>
				<v:ud v:nameU="DefaultHeight" v:prompt="" v:val="VT0(0.59055118110236):24"/>
				<v:ud v:nameU="ResizeTxtHeight" v:prompt="" v:val="VT0(0.59055118110236):24"/>
			</v:userDefs>
			<v:textBlock v:margins="rect(2,2,2,2)" v:tabSpace="42.5197"/>
			<v:textRect cx="35.4331" cy="574.016" width="70.87" height="42.5197"/>
			<g id="shadow10-50" v:groupContext="shadow" v:shadowOffsetX="0.345598" v:shadowOffsetY="-1.97279" v:shadowType="1"
					transform="matrix(1,0,0,1,0.345598,1.97279)" class="st1">
				<rect x="0" y="552.756" width="70.8661" height="42.5197" class="st7"/>
			</g>
			<rect x="0" y="552.756" width="70.8661" height="42.5197" class="st8"/>
			<text x="16.43" y="571.62" class="st4" v:langID="1031"><v:paragraph v:horizAlign="1"/><v:tabList/>Analyse der <tspan
						x="19.98" dy="1.2em" class="st9">Webseite</tspan></text>		</g>
		<g id="shape15-56" v:mID="15" v:groupContext="shape" v:layerMember="1" transform="translate(311.811,-240.945)">
			<title>Dynamischer Verbinder.15</title>
			<path d="M7.09 595.28 L7.09 630.76" class="st5"/>
		</g>
		<g id="shape14-61" v:mID="14" v:groupContext="shape" v:layerMember="0" transform="translate(283.465,-155.906)">
			<title>Entscheidung</title>
			<desc>Hyperlink?</desc>
			<v:custProps>
				<v:cp v:nameU="Cost" v:lbl="Kosten" v:prompt="" v:type="7" v:format="@" v:sortKey="" v:invis="false" v:ask="false"
						v:langID="1031" v:cal="0"/>
				<v:cp v:nameU="ProcessNumber" v:lbl="Prozessnummer" v:prompt="" v:type="2" v:format="" v:sortKey="" v:invis="false"
						v:ask="false" v:langID="1031" v:cal="0"/>
				<v:cp v:nameU="Owner" v:lbl="Besitzer" v:prompt="" v:type="0" v:format="" v:sortKey="" v:invis="false"
						v:ask="false" v:langID="1031" v:cal="0"/>
				<v:cp v:nameU="Function" v:lbl="Funktionsname" v:prompt="" v:type="0" v:format="" v:sortKey="" v:invis="false"
						v:ask="false" v:langID="1031" v:cal="0" v:val="VT4()"/>
				<v:cp v:nameU="StartDate" v:lbl="Startdatum" v:prompt="" v:type="5" v:format="" v:sortKey="" v:invis="false"
						v:ask="false" v:langID="1031" v:cal="0"/>
				<v:cp v:nameU="EndDate" v:lbl="Enddatum" v:prompt="" v:type="5" v:format="" v:sortKey="" v:invis="false"
						v:ask="false" v:langID="1031" v:cal="0"/>
				<v:cp v:nameU="Status" v:lbl="Status" v:prompt="" v:type="4"
						v:format=";Nicht begonnen;In Bearbeitung;Abgeschlossen;Zurückgestellt;Auf Eingabe wartend" v:sortKey=""
						v:invis="false" v:ask="false" v:langID="1031" v:cal="0" v:val="VT4()"/>
			</v:custProps>
			<v:userDefs>
				<v:ud v:nameU="visVersion" v:prompt="" v:val="VT0(15):26"/>
				<v:ud v:nameU="DefaultWidth" v:prompt="" v:val="VT0(0.98425196850394):24"/>
				<v:ud v:nameU="DefaultHeight" v:prompt="" v:val="VT0(0.59055118110236):24"/>
				<v:ud v:nameU="ResizeTxtHeight" v:prompt="" v:val="VT0(0.59055118110236):24"/>
			</v:userDefs>
			<v:textBlock v:margins="rect(2,2,2,2)" v:tabSpace="42.5197"/>
			<v:textRect cx="35.4331" cy="574.016" width="59.06" height="31.8898"/>
			<g id="shadow14-62" v:groupContext="shadow" v:shadowOffsetX="0.345598" v:shadowOffsetY="-1.97279" v:shadowType="1"
					transform="matrix(1,0,0,1,0.345598,1.97279)" class="st1">
				<path d="M0 574.02 L35.43 552.76 L70.87 574.02 L35.43 595.28 L0 574.02 Z" class="st2"/>
			</g>
			<path d="M0 574.02 L35.43 552.76 L70.87 574.02 L35.43 595.28 L0 574.02 Z" class="st3"/>
			<text x="18.03" y="576.42" class="st4" v:langID="1031"><v:paragraph v:horizAlign="1"/><v:tabList/>Hyperlink?</text>		</g>
		<g id="shape16-67" v:mID="16" v:groupContext="shape" v:layerMember="1" transform="translate(276.378,-177.165)">
			<title>Dynamischer Verbinder.16</title>
			<desc>Ja</desc>
			<v:textBlock v:margins="rect(4,4,4,4)" v:tabSpace="42.5197"/>
			<v:textRect cx="-14.1732" cy="467.717" width="40" height="17.6036"/>
			<path d="M7.09 595.28 L-14.17 595.28 L-14.17 340.16 L0.05 340.16" class="st5"/>
			<rect v:rectContext="textBkgnd" x="-17.3647" y="462.917" width="6.38278" height="9.59985" class="st10"/>
			<text x="-17.36" y="470.12" class="st11" v:langID="1031"><v:paragraph v:horizAlign="1"/><v:tabList/>Ja</text>		</g>
		<g id="shape18-74" v:mID="18" v:groupContext="shape" v:layerMember="1" transform="translate(354.331,-184.252)">
			<title>Dynamischer Verbinder.18</title>
			<desc>Nein</desc>
			<v:textBlock v:margins="rect(4,4,4,4)" v:tabSpace="42.5197"/>
			<v:textRect cx="21.2598" cy="602.362" width="40" height="17.6036"/>
			<path d="M0 602.36 L35.48 602.36" class="st5"/>
			<rect v:rectContext="textBkgnd" x="13.6681" y="597.562" width="15.1834" height="9.59985" class="st10"/>
			<text x="13.67" y="604.76" class="st11" v:langID="1031"><v:paragraph v:horizAlign="1"/><v:tabList/>Nein</text>		</g>
		<g id="shape17-81" v:mID="17" v:groupContext="shape" v:layerMember="0" transform="translate(396.85,-155.906)">
			<title>Prozess.17</title>
			<desc>Speicherung der relevanten Daten</desc>
			<v:custProps>
				<v:cp v:nameU="Cost" v:lbl="Kosten" v:prompt="" v:type="7" v:format="@" v:sortKey="" v:invis="false" v:ask="false"
						v:langID="1031" v:cal="0"/>
				<v:cp v:nameU="ProcessNumber" v:lbl="Prozessnummer" v:prompt="" v:type="2" v:format="" v:sortKey="" v:invis="false"
						v:ask="false" v:langID="1031" v:cal="0"/>
				<v:cp v:nameU="Owner" v:lbl="Besitzer" v:prompt="" v:type="0" v:format="" v:sortKey="" v:invis="false"
						v:ask="false" v:langID="1031" v:cal="0"/>
				<v:cp v:nameU="Function" v:lbl="Funktionsname" v:prompt="" v:type="0" v:format="" v:sortKey="" v:invis="false"
						v:ask="false" v:langID="1031" v:cal="0" v:val="VT4()"/>
				<v:cp v:nameU="StartDate" v:lbl="Startdatum" v:prompt="" v:type="5" v:format="" v:sortKey="" v:invis="false"
						v:ask="false" v:langID="1031" v:cal="0"/>
				<v:cp v:nameU="EndDate" v:lbl="Enddatum" v:prompt="" v:type="5" v:format="" v:sortKey="" v:invis="false"
						v:ask="false" v:langID="1031" v:cal="0"/>
				<v:cp v:nameU="Status" v:lbl="Status" v:prompt="" v:type="4"
						v:format=";Nicht begonnen;In Bearbeitung;Abgeschlossen;Zurückgestellt;Auf Eingabe wartend" v:sortKey=""
						v:invis="false" v:ask="false" v:langID="1031" v:cal="0" v:val="VT4()"/>
			</v:custProps>
			<v:userDefs>
				<v:ud v:nameU="visVersion" v:prompt="" v:val="VT0(15):26"/>
				<v:ud v:nameU="DefaultWidth" v:prompt="" v:val="VT0(0.98425196850394):24"/>
				<v:ud v:nameU="DefaultHeight" v:prompt="" v:val="VT0(0.59055118110236):24"/>
				<v:ud v:nameU="ResizeTxtHeight" v:prompt="" v:val="VT0(0.59055118110236):24"/>
			</v:userDefs>
			<v:textBlock v:margins="rect(2,2,2,2)" v:tabSpace="42.5197"/>
			<v:textRect cx="35.4331" cy="574.016" width="70.87" height="42.5197"/>
			<g id="shadow17-82" v:groupContext="shadow" v:shadowOffsetX="0.345598" v:shadowOffsetY="-1.97279" v:shadowType="1"
					transform="matrix(1,0,0,1,0.345598,1.97279)" class="st1">
				<rect x="0" y="552.756" width="70.8661" height="42.5197" class="st7"/>
			</g>
			<rect x="0" y="552.756" width="70.8661" height="42.5197" class="st8"/>
			<text x="8.93" y="571.62" class="st4" v:langID="1031"><v:paragraph v:horizAlign="1"/><v:tabList/>Speicherung der <tspan
						x="7.17" dy="1.2em" class="st9">relevanten Daten</tspan></text>		</g>
		<g id="shape20-88" v:mID="20" v:groupContext="shape" transform="translate(559.843,-155.906)">
			<title>Datenbank</title>
			<desc>Datenbank</desc>
			<v:userDefs>
				<v:ud v:nameU="msvShapeCategories" v:prompt="" v:val="VT4(Icon)"/>
				<v:ud v:nameU="visVersion" v:prompt="" v:val="VT0(15):26"/>
			</v:userDefs>
			<v:textBlock v:margins="rect(2,2,2,2)" v:tabSpace="42.5197"/>
			<v:textRect cx="50.5262" cy="574.016" width="41.31" height="42.5197"/>
			<path d="M-0.02 560.86 A14.958 7.92826 179.4 1 1 29.89 560.55 A14.958 7.92826 179.4 1 1 -0.02 560.86" class="st12"/>
			<path d="M29.87 560.97 L29.87 586.36 A14.2294 8.26638 0 0 1 14.91 595.05 A14.1845 8.24029 0 0 1 0 586.36 L0 560.97"
					class="st12"/>
			<text x="31.87" y="576.42" class="st13" v:langID="1031"><v:paragraph/><v:tabList/>Datenbank</text>		</g>
		<g id="shape21-93" v:mID="21" v:groupContext="shape" transform="translate(416.648,-303.954)">
			<title>Internet</title>
			<desc>Internet</desc>
			<v:userDefs>
				<v:ud v:nameU="msvShapeCategories" v:prompt="" v:val="VT4(Icon)"/>
				<v:ud v:nameU="visVersion" v:prompt="" v:val="VT0(15):26"/>
			</v:userDefs>
			<v:textBlock v:margins="rect(2,2,2,2)" v:tabSpace="42.5197"/>
			<v:textRect cx="104.136" cy="551.986" width="32.35" height="86.5794"/>
			<path d="M43.98 508.7 A43.9843 43.2916 -180 0 0 0 551.99 A43.9826 43.2899 -180 0 0 43.98 595.28 A43.9808 43.2882 -180
						 0 0 87.96 551.99 A43.9826 43.2899 -180 0 0 43.98 508.7 ZM45.35 589.8 L45.35 588.39 L45.35 572.28 L60.22
						 572.28 L59.27 574.22 A49.7069 48.9241 0 0 1 49.68 587.57 L48.21 588.9 L47.29 589.7 L45.35 589.8 ZM46.8 514.25
						 L47.64 514.99 A49.7936 49.0095 0 0 1 58.95 529.74 L59.94 531.69 L45.35 531.69 L45.35 514.18 L46.8 514.25
						 ZM76.42 531.69 L62.94 531.69 L62.58 530.88 A52.7445 51.9139 -180 0 0 53.05 516.41 L51.59 514.86 A38.564
						 37.9567 0 0 1 76.42 531.69 ZM45.35 550.65 L45.35 534.4 L61.04 534.4 L61.37 535.3 A51.7223 50.9077 0 0 1
						 64.21 549.22 L64.3 550.65 L45.35 550.65 L45.35 550.65 ZM64.33 553.36 L64.26 554.78 A51.4124 50.6028 0 0
						 1 61.57 568.66 L61.25 569.57 L45.35 569.57 L45.35 553.36 L64.33 553.36 ZM53.48 587.5 A52.4539 51.6278 -180
						 0 0 62.77 573.1 L63.12 572.28 L76.42 572.28 A38.5626 37.9553 0 0 1 52.11 589 L53.48 587.5 ZM64.19 569.57
						 L64.73 567.82 A54.2829 53.4281 -180 0 0 67.03 554.65 L67.09 553.36 L82.4 553.36 A38.2319 37.6298 0 0 1 78.04
						 569.57 L64.19 569.57 ZM67.08 550.65 L67.01 549.37 A54.5776 53.7181 -180 0 0 64.6 536.16 L64.03 534.4 L78.04
						 534.4 A38.1717 37.5706 0 0 1 82.4 550.65 L67.08 550.65 ZM42.6 516.13 L42.6 531.69 L28.04 531.69 L29.02 529.74
						 A49.9325 49.1462 0 0 1 38.42 516.81 L38.44 516.79 L38.42 516.81 L39.73 515.63 L41.32 514.24 L42.59 514.18
						 L42.6 516.13 ZM36.54 514.84 L35.1 516.36 A52.5963 51.768 -180 0 0 25.52 530.88 L25.16 531.69 L11.54 531.69
						 A38.5477 37.9407 0 0 1 36.54 514.84 ZM24.06 534.4 L23.5 536.16 A54.2729 53.4182 -180 0 0 21.09 549.37 L21.02
						 550.65 L5.57 550.65 A38.2101 37.6083 0 0 1 9.93 534.4 L24.06 534.4 ZM5.57 553.36 L21.01 553.36 L21.07 554.65
						 A53.955 53.1053 -180 0 0 23.37 567.82 L23.91 569.57 L9.93 569.57 A38.2295 37.6275 0 0 1 5.57 553.36 ZM24.98
						 572.28 L25.33 573.1 A52.5077 51.6808 -180 0 0 34.67 587.55 L36.04 589.05 A38.5707 37.9633 0 0 1 11.54 572.28
						 L24.98 572.28 L24.98 572.28 ZM26.58 568.66 A51.6656 50.8519 0 0 1 23.86 554.78 L23.79 553.36 L42.6 553.36
						 L42.6 569.57 L26.9 569.57 L26.58 568.66 ZM23.77 550.65 L23.85 549.23 A51.3109 50.5029 0 0 1 26.68 535.3
						 L27 534.4 L42.6 534.4 L42.6 550.65 L23.77 550.65 ZM40.81 589.7 L40.3 589.25 A50.0254 49.2376 0 0 1 28.95
						 574.22 L27.99 572.28 L42.59 572.28 L42.59 589.79 L40.81 589.7 Z" class="st14"/>
			<text x="89.96" y="554.39" class="st13" v:langID="1031"><v:paragraph/><v:tabList/>Internet</text>		</g>
		<g id="shape22-96" v:mID="22" v:groupContext="shape" v:layerMember="1" transform="translate(467.717,-184.252)">
			<title>Dynamischer Verbinder.22</title>
			<path d="M0 602.36 L85.09 602.36" class="st5"/>
		</g>
		<g id="shape23-101" v:mID="23" v:groupContext="shape" v:layerMember="1" transform="translate(416.648,-340.157)">
			<title>Dynamischer Verbinder.23</title>
			<path d="M0 588.19 L-55.28 588.19" class="st5"/>
		</g>
	</g>
</svg>
