<?xml version="1.0" standalone="no"?>
<!DOCTYPE svg PUBLIC "-//W3C//DTD SVG 20010904//EN"
 "http://www.w3.org/TR/2001/REC-SVG-20010904/DTD/svg10.dtd">
<svg version="1.0" xmlns="http://www.w3.org/2000/svg"
 width="306.000000pt" height="306.000000pt" viewBox="0 0 306.000000 306.000000"
 preserveAspectRatio="xMidYMid meet">
<metadata>
Created by potrace 1.11, written by Peter Selinger 2001-2013
</metadata>
<g transform="translate(0.000000,306.000000) scale(0.100000,-0.100000)"
fill="#000000" stroke="none">
<path d="M130 2753 c-22 -9 -65 -55 -76 -83 -10 -24 -13 -1858 -3 -1889 6 -19
39 -53 72 -75 23 -14 52 -18 140 -19 62 -2 117 -6 124 -10 6 -4 14 -3 18 2 7
13 46 10 64 -3 11 -8 13 -8 8 0 -4 8 34 11 132 10 l138 -1 2 51 2 51 -273 0
c-268 0 -334 4 -323 23 3 5 2 11 -3 14 -5 3 -8 339 -8 748 l1 743 1391 3 1391
2 0 -747 c0 -412 -4 -756 -8 -765 -5 -9 -17 -17 -27 -17 -9 -1 -142 -2 -295
-3 -227 -1 -277 -4 -273 -15 3 -7 2 -13 -2 -13 -4 0 -7 -11 -7 -25 0 -14 4
-25 8 -25 5 0 5 -4 2 -10 -8 -13 -20 -12 235 -14 118 0 220 -4 227 -9 6 -4 14
-3 18 2 7 13 46 10 64 -3 11 -8 13 -8 7 1 -5 9 1 13 21 14 15 1 31 1 34 1 11
-2 74 61 84 83 10 22 16 1895 6 1895 -3 0 -12 13 -19 29 -29 65 62 61 -1469
60 -763 0 -1395 -3 -1403 -6z m2666 -165 c11 -12 11 -88 0 -90 -6 0 -15 -2
-21 -2 -5 -1 -16 -5 -24 -10 -10 -6 -12 -5 -7 3 5 8 -5 10 -39 7 -34 -4 -44
-2 -38 7 4 7 0 7 -10 -2 -18 -14 -19 -12 -19 34 0 63 -4 61 76 60 41 0 78 -3
82 -7z"/>
<path d="M1489 2185 c-1 -5 -1 -14 0 -19 1 -5 -4 -13 -11 -17 -7 -5 -8 -9 -2
-9 12 0 13 -188 1 -207 -4 -6 -4 -14 1 -17 10 -6 10 -287 0 -302 -4 -6 -4 -14
0 -18 12 -12 10 -166 -2 -166 -8 0 -8 -3 -1 -8 6 -4 10 -25 9 -47 -2 -63 -3
-65 -21 -58 -11 4 -14 3 -9 -5 4 -7 1 -12 -8 -12 -9 0 -16 -4 -16 -10 0 -5 -7
-10 -15 -10 -29 0 -82 -114 -64 -137 7 -7 6 -13 0 -17 -10 -6 -8 -26 4 -58 6
-15 2 -18 -18 -16 -15 1 -24 4 -22 7 3 2 -12 12 -33 22 -20 10 -59 31 -87 48
l-50 29 -2 109 c0 59 -2 111 -2 114 -1 3 -22 5 -48 5 -41 -1 -48 -4 -48 -21 1
-11 -4 -23 -10 -27 -7 -5 -7 -8 0 -8 11 0 13 -79 2 -96 -3 -6 -3 -14 0 -18 12
-12 12 -36 0 -36 -8 0 -8 -3 -2 -8 6 -4 10 -23 10 -42 1 -22 5 -34 13 -33 7 2
12 -4 12 -13 0 -8 4 -13 9 -9 5 3 15 -1 23 -8 15 -15 49 -31 61 -29 4 1 7 -2
7 -6 0 -5 22 -19 50 -32 27 -13 50 -26 50 -29 -1 -24 -27 -28 -189 -29 -116
-1 -178 -6 -185 -13 -8 -8 -7 -13 2 -16 6 -3 9 -10 5 -16 -9 -15 -10 -168 0
-174 4 -3 2 -12 -5 -21 -11 -13 -11 -14 0 -8 12 7 12 4 2 -15 -10 -18 -10 -24
-1 -27 9 -3 9 -7 0 -18 -8 -10 -8 -18 -1 -27 7 -8 7 -18 2 -27 -17 -27 6 -48
51 -45 22 1 46 8 52 14 7 7 8 11 0 11 -10 0 -10 47 1 57 3 3 1 14 -4 24 -7 12
-6 19 3 22 9 4 9 6 0 6 -9 1 -10 8 -4 24 5 13 5 30 1 37 -5 8 -6 19 -2 24 8
14 10 46 2 46 -13 0 -5 40 10 41 136 8 210 1 210 -21 0 -17 -42 -48 -61 -45
-10 2 -19 -1 -19 -6 0 -6 -4 -8 -9 -4 -5 3 -12 1 -16 -5 -4 -6 -11 -8 -16 -5
-5 4 -9 1 -9 -6 0 -7 -3 -9 -6 -6 -4 3 -15 2 -24 -3 -16 -8 -17 -15 -8 -50 6
-22 15 -40 20 -40 5 0 7 -4 3 -10 -3 -5 0 -19 6 -32 24 -45 29 -58 29 -68 0
-6 8 -28 18 -49 10 -21 18 -45 16 -54 -1 -10 2 -14 9 -10 6 4 8 0 4 -10 -3
-10 -2 -17 3 -17 6 0 10 -9 10 -19 0 -30 12 -32 59 -10 34 15 42 23 36 36 -4
10 -15 39 -25 66 -9 26 -20 50 -23 54 -4 3 -7 14 -7 24 0 10 -6 24 -12 31 -7
7 -14 22 -16 33 -9 54 -7 58 21 62 19 3 27 -1 27 -12 0 -8 4 -15 8 -15 5 0 9
-6 9 -13 0 -18 33 -67 46 -67 6 0 8 -3 4 -6 -10 -10 50 -57 108 -83 17 -7 37
-16 45 -20 8 -4 47 -7 85 -6 54 1 84 7 129 28 60 28 146 106 146 133 0 8 4 14
9 14 5 0 13 14 16 31 4 18 10 28 14 22 3 -5 15 -9 25 -8 25 0 28 -27 6 -67 -9
-18 -18 -37 -19 -43 -3 -22 -24 -81 -34 -92 -5 -7 -6 -13 -2 -13 4 0 2 -6 -4
-14 -7 -8 -14 -25 -17 -39 -3 -21 1 -27 27 -36 54 -19 65 -14 80 32 7 23 13
48 12 55 0 6 3 12 7 12 5 0 11 14 15 30 4 17 11 30 16 30 6 0 8 4 4 10 -3 5
-1 17 5 27 5 10 21 49 35 86 26 71 22 94 -15 92 -8 -1 -19 2 -25 6 -5 3 -28
12 -50 19 -52 16 -62 25 -60 51 1 21 6 22 108 23 88 1 107 -2 108 -14 1 -8 2
-22 3 -30 1 -8 -2 -27 -6 -43 -4 -15 -4 -25 0 -23 4 2 7 -29 7 -69 0 -40 -4
-71 -8 -68 -5 3 -4 -4 2 -15 14 -27 14 -35 -1 -26 -10 5 -10 3 0 -7 7 -8 33
-14 60 -15 l47 0 -1 198 c0 109 -4 201 -7 204 -3 4 -85 6 -181 6 -179 -1 -198
3 -175 39 5 8 9 10 9 6 0 -8 59 21 70 34 3 3 32 20 64 38 74 40 87 57 74 91
-11 28 -10 30 4 48 6 6 6 12 1 12 -11 0 -11 50 0 68 5 6 5 12 0 12 -4 0 -8 14
-8 30 -1 17 4 30 10 30 5 0 4 4 -3 9 -8 4 -12 12 -10 17 1 5 -18 9 -44 9 -37
1 -48 -3 -49 -15 -4 -64 -3 -86 6 -92 7 -5 7 -8 0 -8 -6 0 -10 -25 -9 -58 l1
-58 -46 -23 c-25 -12 -71 -37 -101 -56 -55 -34 -87 -33 -59 1 12 15 12 17 0 9
-11 -6 -12 -5 -5 6 11 17 15 79 5 79 -4 0 -7 8 -7 18 -1 9 -3 24 -5 32 -5 19
-80 90 -95 90 -17 0 -47 37 -35 44 11 7 9 75 -3 95 -6 9 -5 12 1 8 6 -4 10
121 9 366 l0 372 -48 0 c-26 1 -49 -4 -49 -10z"/>
</g>
</svg>
